<svg width="24" height="24" viewBox="0 0 24 24" fill="none" xmlns="http://www.w3.org/2000/svg">
<path d="M19.0715 4.92889C15.1683 1.02566 8.8326 1.02566 4.92938 4.92889C1.02615 8.83212 1.02615 15.1678 4.92938 19.071C8.8326 22.9743 15.1683 22.9743 19.0715 19.071C22.9747 15.1678 22.9747 8.83212 19.0715 4.92889ZM14.1218 15.5355L12.0004 13.4142L9.87912 15.5355C9.49021 15.9244 8.85382 15.9244 8.46491 15.5355C8.076 15.1466 8.076 14.5102 8.46491 14.1213L10.5862 12L8.46491 9.87863C8.076 9.48973 8.076 8.85333 8.46491 8.46442C8.85382 8.07551 9.49021 8.07551 9.87912 8.46442L12.0004 10.5857L14.1218 8.46442C14.5107 8.07551 15.1471 8.07551 15.536 8.46442C15.9249 8.85333 15.9249 9.48973 15.536 9.87863L13.4147 12L15.536 14.1213C15.9249 14.5102 15.9249 15.1466 15.536 15.5355C15.1471 15.9244 14.5107 15.9244 14.1218 15.5355Z" fill="#C7C7CC"/>
</svg>
